<svg xmlns="http://www.w3.org/2000/svg" viewBox="0 0 480 480" fill="none">
  <g stroke="currentColor" stroke-width="1.5" stroke-opacity="0.30">
    <circle cx="240" cy="240" r="60"/>
    <circle cx="240" cy="240" r="110"/>
    <circle cx="240" cy="240" r="160"/>
    <circle cx="240" cy="240" r="210"/>
  </g>
  <path
    d="M244 92 C264 92 284 106 294 128 C302 148 300 172 308 196 C316 220 334 242 328 268 C324 288 308 304 288 312 C272 318 256 310 242 300 C228 290 218 272 214 250 C210 228 218 206 222 184 C226 158 228 118 244 92 Z"
    fill="currentColor"
    fill-opacity="0.10"
    stroke="currentColor"
    stroke-width="1.2"
    stroke-opacity="0.35"
  />
  <g stroke="currentColor" stroke-width="1" stroke-opacity="0.18">
    <line x1="240" y1="20" x2="240" y2="460"/>
    <line x1="20" y1="240" x2="460" y2="240"/>
  </g>
</svg>
